Coordinates
version=1
nRows=8
nColumns=46
inDegrees=yes

Units are S.I. units (second, meters, Newtons, ...)
Angles are in degrees.

endheader
time	pelvis_tilt	pelvis_list	pelvis_rotation	pelvis_tx	pelvis_ty	pelvis_tz	bb_angle	bb_tx	bb_ty	bb_tz	hip_flexion_r	hip_adduction_r	hip_rotation_r	knee_angle_r	knee_angle_r_beta	ankle_angle_r	subtalar_angle_r	mtp_angle_r	crank_angle_r	hip_flexion_l	hip_adduction_l	hip_rotation_l	knee_angle_l	knee_angle_l_beta	ankle_angle_l	subtalar_angle_l	mtp_angle_l	crank_angle_l	lumbar_extension	lumbar_bending	lumbar_rotation	arm_flex_r	arm_add_r	arm_rot_r	elbow_flex_r	pro_sup_r	wrist_flex_r	wrist_dev_r	arm_flex_l	arm_add_l	arm_rot_l	elbow_flex_l	pro_sup_l	wrist_flex_l	wrist_dev_l
      5.00000000	    -29.17401493	     -7.82150439	    -16.18932534	      0.36414021	      1.14578413	     -0.27126565	      0.00000000	      0.50000000	      0.00000000	      0.25000000	     75.68999270	      7.81464856	     -0.22578255	    106.34950448	      1.85614901	    -14.40747772	      1.67509822	      0.00000000	      0.00000000	     29.30836054	    -19.28618083	     -8.77453876	     22.35508137	      0.39016977	    -16.05862267	      0.93398795	      0.00000000	      0.00000000	    -59.94400391	     -5.51023442	      6.06332452	     56.08312110	    -21.96079633	     33.74126989	     84.99991014	     51.94947891	      0.00000000	      0.00000000	     25.89432177	    -31.43674317	      2.13263432	    107.50582922	     51.37979512	      0.00000000	      0.00000000
      5.00500000	    -29.14274817	     -7.48399427	    -17.11609180	      0.36423784	      1.14652256	     -0.27302736	      0.00000000	      0.50000000	      0.00000000	      0.25000000	     76.90597366	      7.90290531	      0.02076539	    106.71531356	      1.86253358	    -14.29653550	      2.54099491	      0.00000000	      0.00000000	     28.04067540	    -19.31964610	    -10.00768258	     21.51650439	      0.37553385	    -17.15594914	      2.56423479	      0.00000000	      0.00000000	    -60.08117451	     -5.80461433	      6.29088536	     56.79926374	    -22.21623415	     34.47953692	     85.15704563	     52.04079769	      0.00000000	      0.00000000	     25.44686932	    -30.70790054	      1.29693202	    107.27593716	     51.28748205	      0.00000000	      0.00000000
      5.01000000	    -29.05665516	     -7.14487079	    -18.06103534	      0.36418981	      1.14764163	     -0.27461241	      0.00000000	      0.50000000	      0.00000000	      0.25000000	     77.97975300	      8.08147832	      0.26006843	    106.87620977	      1.86534175	    -14.27476977	      3.19310592	      0.00000000	      0.00000000	     26.82685595	    -19.29220050	    -11.05650729	     20.83770241	      0.36368652	    -18.26161238	      3.95572620	      0.00000000	      0.00000000	    -60.30080689	     -6.16899048	      6.47046953	     57.59879410	    -22.44737786	     35.27093183	     85.28212365	     52.13050903	      0.00000000	      0.00000000	     25.13238888	    -29.99201312	      0.51068401	    107.03070713	     51.20158899	      0.00000000	      0.00000000
      5.01500000	    -29.08526715	     -6.68270983	    -18.92029849	      0.36394495	      1.14876430	     -0.27622440	      0.00000000	      0.50000000	      0.00000000	      0.25000000	     79.14732508	      8.17858829	      0.54614134	    106.87502554	      1.86532108	    -14.25882391	      3.73555399	      0.00000000	      0.00000000	     25.94459601	    -19.06075893	    -11.74556762	     20.35100189	      0.35519199	    -19.50865228	      4.83234865	      0.00000000	      0.00000000	    -60.40468589	     -6.53473833	      6.60204404	     58.26655348	    -22.65806595	     35.84989335	     85.45745234	     52.20832346	      0.00000000	      0.00000000	     24.93915012	    -29.32985950	     -0.06815929	    106.73768584	     51.12100978	      0.00000000	      0.00000000
      5.02000000	    -29.20293986	     -6.49394860	    -19.54858227	      0.36367255	      1.15020015	     -0.27793277	      0.00000000	      0.50000000	      0.00000000	      0.25000000	     80.16030986	      8.20992814	      0.44535973	    106.63954633	      1.86121120	    -14.19049889	      4.10673420	      0.00000000	      0.00000000	     25.44684360	    -19.02754199	    -12.00260500	     20.24639070	      0.35336618	    -20.80456247	      5.36646758	      0.00000000	      0.00000000	    -60.54039273	     -6.60496835	      6.86591004	     58.85469730	    -22.65961549	     35.85908589	     85.60636880	     52.22495986	      0.00000000	      0.00000000	     24.86355920	    -29.01070503	     -0.16306183	    106.58575298	     51.09283507	      0.00000000	      0.00000000
      5.02500000	    -29.08118143	     -6.01124172	    -20.67166468	      0.36339860	      1.15217549	     -0.27879955	      0.00000000	      0.50000000	      0.00000000	      0.25000000	     80.89466192	      8.76321152	      0.89729182	    106.25872005	      1.85456452	    -13.81942271	      4.99962996	      0.00000000	      0.00000000	     24.55449122	    -18.84071222	    -13.04370528	     20.11263426	      0.35103169	    -22.15082569	      5.59057855	      0.00000000	      0.00000000	    -60.82580133	     -7.33936735	      7.20350616	     59.39543336	    -23.06944899	     36.48015785	     85.93433034	     52.33440189	      0.00000000	      0.00000000	     25.05967653	    -28.00838133	     -0.80788596	    105.99525623	     50.94568826	      0.00000000	      0.00000000
      5.03000000	    -29.19136494	     -5.62826933	    -21.24405595	      0.36257518	      1.15374720	     -0.28012953	      0.00000000	      0.50000000	      0.00000000	      0.25000000	     81.74653824	      8.84425136	      0.97082149	    105.78845615	      1.84635687	    -13.36102459	      5.36056922	      0.00000000	      0.00000000	     24.49333196	    -18.61586704	    -13.21969613	     20.57617440	      0.35912199	    -23.42355670	      5.59181075	      0.00000000	      0.00000000	    -60.97379537	     -7.50160056	      7.37697068	     60.04003892	    -23.05516434	     36.54216678	     86.19183498	     52.37209348	      0.00000000	      0.00000000	     25.24582740	    -27.70681860	     -0.90178135	    105.82318125	     50.91138852	      0.00000000	      0.00000000
      5.03500000	    -29.33851092	     -5.08846540	    -21.90505031	      0.36169610	      1.15558055	     -0.28145391	      0.00000000	      0.50000000	      0.00000000	      0.25000000	     82.49829749	      9.02854261	      1.33444660	    105.12617038	      1.83479780	    -12.60323774	      6.29530842	      0.00000000	      0.00000000	     24.58464423	    -18.20375990	    -13.28403117	     21.13853208	      0.36893698	    -24.96970654	      4.95259097	      0.00000000	      0.00000000	    -61.04194255	     -7.85047328	      7.95204152	     60.49283889	    -24.24130999	     37.36834642	     87.20794796	     52.60116782	      0.00000000	      0.00000000	     26.15848334	    -26.42096505	     -1.08660795	    104.69722609	     50.76096131	      0.00000000	      0.00000000
